<?xml version="1.0" encoding="UTF-8" standalone="no"?>
<!-- Created with Inkscape (http://www.inkscape.org/) -->

<svg
   version="1.1"
   id="svg48"
   width="40.959999"
   height="40.959999"
   viewBox="0 0 40.959999 40.959999"
   xmlns="http://www.w3.org/2000/svg"
   xmlns:svg="http://www.w3.org/2000/svg">
  <defs
     id="defs52" />
  <g
     id="g54">
    <rect
       style="fill:#d6fff3;fill-opacity:1;stroke-width:0.806578"
       id="rect804"
       width="35.913807"
       height="31.282387"
       x="2.5662048"
       y="2.0655227"
       ry="3.1898222"
       rx="2.9193385" />
    <ellipse
       style="fill:#d40000;stroke-width:0.890612"
       id="path1707"
       cx="34.240646"
       cy="34.23531"
       rx="3.3529754"
       ry="3.4388227" />
    <path
       style="fill:#000000;stroke-width:0.322501"
       d="m 26.378727,40.066785 c -0.149826,-0.377612 -0.0411,-0.717167 0.308876,-0.96467 0.297047,-0.210069 0.443999,-0.474873 0.32656,-0.588455 -0.117439,-0.113577 -5.058736,-0.206508 -10.980663,-0.206508 -6.9594704,0 -10.7671382,-0.112159 -10.7671382,-0.317158 0,-0.205127 3.8805417,-0.317157 10.9857602,-0.317157 9.926151,0 12.094952,-0.154803 10.493861,-0.749011 -0.603638,-0.224024 -0.655476,-1.153939 -0.06433,-1.153939 0.235162,0 0.931018,0.502359 1.546343,1.116355 1.118774,1.116357 1.118774,1.116357 -0.249644,2.439811 -1.204265,1.164697 -1.396152,1.253555 -1.599627,0.740732 z m 11.843135,-1.36445 c -1.258617,-1.143948 -1.354931,-1.175582 -2.457719,-0.807244 -0.631271,0.210846 -1.590475,0.30283 -2.131564,0.204402 C 32.180288,37.83531 30.569349,36.528904 30.256898,35.361941 29.983991,34.342674 29.983991,34.342674 16.940633,34.184095 3.8972762,34.025516 3.8972762,34.025516 3.10612,33.135647 2.3149635,32.245774 2.3149635,32.245774 2.3149635,17.837764 c 0,-14.40801 0,-14.40801 0.9567006,-15.443778 C 4.2283647,1.358218 4.2283647,1.358218 20.173433,1.2701115 37.671966,1.1734207 37.898624,1.1951755 38.69198,3.0475703 c 0.255561,0.5967124 0.329914,5.127183 0.248174,15.1220537 -0.122756,15.010542 -0.200643,16.700139 -0.821215,17.81463 -0.343148,0.616267 -0.239682,0.809798 0.967006,1.808741 0.886759,0.734092 1.28435,1.287305 1.156596,1.609293 -0.285008,0.718309 -0.568174,0.620221 -2.020679,-0.699953 z m -1.622981,-2.442296 c 1.665697,-1.610963 0.684715,-4.685439 -1.628943,-5.105222 -1.252834,-0.227311 -2.926021,0.462394 -3.459204,1.42592 -0.629927,1.138356 -0.398912,2.726248 0.526897,3.62164 1.191085,1.151947 3.400906,1.179885 4.56125,0.05766 z M 8.2177601,32.281146 c 0,-0.523312 -0.1199608,-0.951475 -0.2665795,-0.951475 -0.1466188,0 -0.6907223,0.428163 -1.2091197,0.951475 -0.9425391,0.951475 -0.9425391,0.951475 0.2665806,0.951475 1.1248429,0 1.2091186,-0.06632 1.2091186,-0.951475 z m 5.5748639,-2.854424 c 0,-2.093245 -0.135091,-3.805899 -0.300201,-3.805899 -0.165113,0 -1.124318,0.907836 -2.131566,2.017412 -1.7600828,1.93889 -1.831364,2.087027 -1.831364,3.8059 0,1.788486 0,1.788486 2.131566,1.788486 2.131565,0 2.131565,0 2.131565,-3.805899 z m 5.574864,1.198541 c 0,-2.607358 0,-2.607358 -1.875351,-4.440217 -1.031443,-1.00807 -1.990647,-1.832856 -2.131565,-1.832856 -0.140919,0 -0.256216,1.998096 -0.256216,4.440215 0,4.440216 0,4.440216 2.131565,4.440216 2.131567,0 2.131567,0 2.131567,-2.607358 z m 5.896965,-2.546464 c -0.0058,-5.153821 -0.0058,-5.153821 -2.131566,-3.047764 -2.125734,2.106057 -2.125734,2.106057 -2.125734,5.153822 0,3.047764 0,3.047764 2.131566,3.047764 2.131564,0 2.131564,0 2.125734,-5.153822 z m 5.157743,4.519506 c 0.09434,-0.348875 0.301871,-0.634318 0.461198,-0.634318 0.159328,0 0.289687,-3.282587 0.289687,-7.294639 0,-4.012052 -0.12582,-7.294639 -0.279599,-7.294639 -0.153779,0 -1.112984,0.858482 -2.131566,1.907739 -1.851968,1.907739 -1.851968,1.907739 -1.851968,7.928956 0,6.021217 0,6.021217 1.670369,6.021217 1.394573,0 1.698684,-0.104732 1.841879,-0.634316 z M 6.4713663,31.0893 c 1.0506986,-1.004389 3.3889439,-3.344839 5.1961007,-5.201003 3.28574,-3.374842 3.28574,-3.374842 5.738831,-1.209426 2.715174,2.396768 1.384897,3.296275 13.850886,-9.36569 2.810244,-2.854424 2.810244,-2.854424 3.597756,-2.140819 0.985587,0.893094 1.237137,0.896976 1.237137,0.01909 0,-0.381983 0.176251,-1.5198 0.39167,-2.528484 0.215416,-1.0086821 0.322379,-1.9009809 0.237693,-1.9828842 -0.08469,-0.081892 -1.37587,0.1478654 -2.869296,0.5105926 -2.715324,0.6595041 -2.715324,0.6595041 -1.904617,1.4880556 0.810707,0.82855 0.810707,0.82855 -5.687265,7.330295 C 19.76229,24.51077 19.76229,24.51077 17.388401,22.298237 15.01451,20.0857 15.01451,20.0857 9.1573252,25.945554 c -3.2214523,3.22292 -5.8574955,5.93835 -5.8578731,6.034291 -0.00101,0.253547 0.7454673,0.935617 1.0239516,0.935617 0.1306806,0 1.0972629,-0.821774 2.1479626,-1.826162 z M 38.387609,29.426722 c 0,-2.220108 0,-2.220108 -2.951397,-2.220108 -2.951399,0 -2.951399,0 -2.951399,1.585791 0,1.585791 0,1.585791 1.746254,1.585791 1.292941,0 1.910126,0.159771 2.377515,0.615468 0.347196,0.338507 0.889509,0.623949 1.205144,0.634316 0.493757,0.01621 0.573883,-0.291129 0.573883,-2.201258 z M 5.0642364,28.791492 c 0.6522588,-0.69825 1.1859249,-1.340496 1.1859249,-1.427213 0,-0.08671 -0.6640643,-0.157665 -1.4756992,-0.157665 -1.4756992,0 -1.4756992,0 -1.4756992,1.427212 0,0.784967 0.1303993,1.427212 0.2897743,1.427212 0.1593761,0 0.8234403,-0.571295 1.4756992,-1.269546 z m 3.9091957,-4.025617 c 1.8677939,-1.806423 1.8677939,-1.806423 1.8677939,-3.964479 0,-2.158053 0,-2.158053 -3.9351979,-2.158053 -3.9351976,0 -3.9351976,0 -3.9351976,3.964476 0,3.964479 0,3.964479 2.0674039,3.964479 2.0674059,0 2.0674059,0 3.9351977,-1.806423 z M 38.31572,22.52853 c 0.09209,-3.885187 0.09209,-3.885187 -2.869415,-3.885187 -2.961492,0 -2.961492,0 -2.961492,3.976825 0,3.976826 0,3.976826 2.869415,3.885188 2.869414,-0.09164 2.869414,-0.09164 2.961492,-3.976826 z M 20.284286,20.758883 c 0.09697,-2.11554 0.09697,-2.11554 -2.61467,-2.11554 -2.711636,0 -2.711636,0 -0.431507,2.222237 1.254069,1.222232 2.43067,2.174225 2.61467,2.115541 0.183997,-0.05868 0.378176,-1.05869 0.431507,-2.222238 z m -5.507863,-1.962531 c 0,-0.08416 -0.664063,-0.153009 -1.4757,-0.153009 -1.475697,0 -1.475697,0 -1.475697,1.64253 0,1.642531 0,1.642531 1.475697,0.15301 0.811637,-0.819237 1.4757,-1.558376 1.4757,-1.642531 z m 7.994995,1.244327 c 1.272365,-1.397336 1.272365,-1.397336 -0.24595,-1.397336 -1.518315,0 -1.518315,0 -1.518315,1.427211 0,0.784966 0.110678,1.413768 0.24595,1.397338 0.135273,-0.01643 0.818513,-0.658677 1.518315,-1.427213 z M 10.841226,14.044547 c 0,-3.964477 0,-3.964477 -3.9351979,-3.964477 -3.9351976,0 -3.9351976,0 -3.9351976,3.964477 0,3.964479 0,3.964479 3.9351976,3.964479 3.9351979,0 3.9351979,0 3.9351979,-3.964479 z m 9.510062,0 c 0,-3.964477 0,-3.964477 -4.263132,-3.964477 -4.26313,0 -4.26313,0 -4.26313,3.964477 0,3.964479 0,3.964479 4.26313,3.964479 4.263132,0 4.263132,0 4.263132,-3.964479 z m 6.859217,1.526347 c 2.207589,-2.31709 2.32291,-2.513908 2.32291,-3.964478 0,-1.526346 0,-1.526346 -4.263132,-1.526346 -4.26313,0 -4.26313,0 -4.26313,3.964477 0,3.964479 0,3.964479 1.94022,3.964479 1.94022,0 1.94022,0 4.263132,-2.438132 z m 10.84917,-1.386485 c 0,-2.171777 -0.126922,-3.748751 -0.293699,-3.649064 -0.161533,0.09655 -0.481203,1.394468 -0.710376,2.884257 -0.416681,2.708708 -0.416681,2.708708 -1.443564,1.746116 -1.222922,-1.146358 -1.575801,-1.184892 -2.458581,-0.268471 -0.641105,0.665534 -0.917681,2.448044 -0.450019,2.90034 0.120241,0.116291 1.374585,0.211439 2.787432,0.211439 2.568807,0 2.568807,0 2.568807,-3.824617 z M 30.99511,11.687776 c 0.103768,-0.162384 0.0387,-0.384889 -0.144614,-0.494455 -0.183306,-0.109568 -0.333282,0.02329 -0.333282,0.295242 0,0.557098 0.196778,0.639125 0.477896,0.199213 z M 10.841226,5.9570126 c 0,-3.805899 0,-3.805899 -3.2174967,-3.805899 -4.4541021,0 -4.6528988,0.1902382 -4.6528988,4.4525703 0,3.1592282 0,3.1592282 3.9351976,3.1592282 3.9351979,0 3.9351979,0 3.9351979,-3.8058995 z m 9.510062,0 c 0,-3.805899 0,-3.805899 -4.263132,-3.805899 -4.26313,0 -4.26313,0 -4.26313,3.805899 0,3.8058995 0,3.8058995 4.26313,3.8058995 4.263132,0 4.263132,0 4.263132,-3.8058995 z m 8.788606,3.4253095 c 0.257488,-0.2490277 0.393521,-1.5646477 0.393521,-3.8058993 0,-3.4253092 0,-3.4253092 -4.263132,-3.4253092 -4.26313,0 -4.26313,0 -4.26313,3.805899 0,3.8058995 0,3.8058995 3.869611,3.8058995 2.572454,0 4.001525,-0.1275804 4.26313,-0.38059 z M 32.300903,8.5254857 C 32.401405,8.3682128 33.369587,8.1400876 34.452412,8.0185413 35.535237,7.896995 36.503418,7.6688701 36.603918,7.511597 36.70442,7.3543237 37.073083,7.2256456 37.423163,7.2256456 c 0.555238,0 0.636512,-0.2296689 0.636512,-1.7986866 0,-2.7295547 -0.346789,-2.9586872 -4.477922,-2.9586872 -3.392473,0 -3.392473,0 -3.392473,2.9601436 0,1.6280792 0.09839,3.0552908 0.218624,3.1715818 0.321508,0.3109478 1.680873,0.2574407 1.892999,-0.074511 z"
       id="path216" />
  </g>
</svg>
